<?xml version="1.0" encoding="UTF-8" standalone="no"?>
<!-- Created with Inkscape (http://www.inkscape.org/) -->
<svg
   xmlns:dc="http://purl.org/dc/elements/1.1/"
   xmlns:cc="http://web.resource.org/cc/"
   xmlns:rdf="http://www.w3.org/1999/02/22-rdf-syntax-ns#"
   xmlns:svg="http://www.w3.org/2000/svg"
   xmlns="http://www.w3.org/2000/svg"
   xmlns:sodipodi="http://sodipodi.sourceforge.net/DTD/sodipodi-0.dtd"
   xmlns:inkscape="http://www.inkscape.org/namespaces/inkscape"
   width="875.52002"
   height="389.51999"
   id="svg7124"
   sodipodi:version="0.32"
   inkscape:version="0.45.1"
   version="1.0"
   sodipodi:docbase="C:\Dokumente und Einstellungen\Administrator\Desktop"
   sodipodi:docname="Arial.svg"
   inkscape:output_extension="org.inkscape.output.svg.inkscape">
  <defs
     id="defs7126" />
  <sodipodi:namedview
     id="base"
     pagecolor="#ffffff"
     bordercolor="#666666"
     borderopacity="1.0"
     gridtolerance="10000"
     guidetolerance="10"
     objecttolerance="10"
     inkscape:pageopacity="0.0"
     inkscape:pageshadow="2"
     inkscape:zoom="1.2"
     inkscape:cx="365.01949"
     inkscape:cy="264.1134"
     inkscape:document-units="px"
     inkscape:current-layer="layer1"
     width="875.52px"
     height="389.52px"
     inkscape:window-width="1280"
     inkscape:window-height="968"
     inkscape:window-x="-4"
     inkscape:window-y="-4" />
  <metadata
     id="metadata7129">
    <rdf:RDF>
      <cc:Work
         rdf:about="">
        <dc:format>image/svg+xml</dc:format>
        <dc:type
           rdf:resource="http://purl.org/dc/dcmitype/StillImage" />
        <cc:license
           rdf:resource="http://creativecommons.org/licenses/by-nc-sa/2.5/" />
      </cc:Work>
      <cc:License
         rdf:about="http://creativecommons.org/licenses/by-nc-sa/2.5/">
        <cc:permits
           rdf:resource="http://web.resource.org/cc/Reproduction" />
        <cc:permits
           rdf:resource="http://web.resource.org/cc/Distribution" />
        <cc:requires
           rdf:resource="http://web.resource.org/cc/Notice" />
        <cc:requires
           rdf:resource="http://web.resource.org/cc/Attribution" />
        <cc:prohibits
           rdf:resource="http://web.resource.org/cc/CommercialUse" />
        <cc:permits
           rdf:resource="http://web.resource.org/cc/DerivativeWorks" />
        <cc:requires
           rdf:resource="http://web.resource.org/cc/ShareAlike" />
      </cc:License>
    </rdf:RDF>
  </metadata>
  <g
     inkscape:label="Layer 1"
     inkscape:groupmode="layer"
     id="layer1">
    <path
       style="fill:#ffffff;fill-opacity:1"
       d="M 0,-1.0986328e-005 L 875.52002,-1.0986328e-005 L 875.52002,389.51998 L 0,389.51998 L 0,-1.0986328e-005 z "
       id="rect7142" />
    <path
       style="font-size:13px;font-style:normal;font-weight:normal;fill:#000000;fill-opacity:1;stroke:none;stroke-width:1px;stroke-linecap:butt;stroke-linejoin:miter;stroke-opacity:1;font-family:Sans"
       d="M 15.879562,81.89048 L 46.717453,27.488136 L 55.289719,27.488136 L 64.270187,81.89048 L 57.219406,81.89048 L 54.584641,66.230324 L 32.578781,66.230324 L 23.858078,81.89048 L 15.879562,81.89048 z M 35.695969,60.626808 L 53.694016,60.626808 L 51.578781,46.970558 C 50.762342,41.55263 50.255181,37.03766 50.057297,33.425636 C 48.820286,36.542869 47.014298,40.241433 44.639328,44.521339 L 35.695969,60.626808 z M 70.690109,81.89048 L 78.928391,42.480324 L 84.865891,42.480324 L 83.195969,50.533058 C 85.224597,47.490124 87.209947,45.238824 89.152023,43.779152 C 91.094058,42.319556 93.079407,41.589739 95.108078,41.589699 C 96.443987,41.589739 98.089168,42.07216 100.04362,43.036964 L 97.297531,49.271339 C 96.134743,48.430227 94.860655,48.009655 93.475266,48.009621 C 91.124982,48.009655 88.712875,49.320851 86.238937,51.943214 C 83.764963,54.565638 81.822908,59.278523 80.412766,66.081886 L 77.072922,81.89048 L 70.690109,81.89048 z M 105.61003,35.095558 L 107.20573,27.488136 L 113.88542,27.488136 L 112.28972,35.095558 L 105.61003,35.095558 z M 95.813156,81.89048 L 104.05144,42.480324 L 110.76823,42.480324 L 102.52995,81.89048 L 95.813156,81.89048 z M 139.56511,76.992043 C 137.23956,78.995952 135.00063,80.461771 132.84831,81.389503 C 130.69595,82.317237 128.39517,82.781104 125.94597,82.781105 C 122.30924,82.781104 119.3776,81.711118 117.15105,79.571144 C 114.92448,77.431175 113.8112,74.691268 113.8112,71.351418 C 113.8112,69.149607 114.31218,67.201367 115.31413,65.506691 C 116.31608,63.812048 117.64583,62.451372 119.30339,61.42466 C 120.96093,60.397989 122.98958,59.661987 125.38933,59.216652 C 126.89843,58.9198 129.76203,58.684774 133.98015,58.511574 C 138.19822,58.33842 141.22263,57.893108 143.05339,57.175636 C 143.57289,55.344934 143.83265,53.823451 143.83269,52.611183 C 143.83265,51.05262 143.26364,49.828012 142.12566,48.937355 C 140.56703,47.70041 138.29099,47.081921 135.29753,47.081886 C 132.4772,47.081921 130.17023,47.706595 128.37663,48.95591 C 126.583,50.20529 125.27799,51.980354 124.46159,54.281105 L 117.67058,53.687355 C 119.05599,49.778533 121.25162,46.785046 124.25749,44.706886 C 127.26333,42.628801 131.05467,41.589739 135.63152,41.589699 C 140.50518,41.589739 144.36455,42.752498 147.20964,45.07798 C 149.38668,46.809786 150.47523,49.061086 150.47527,51.831886 C 150.47523,53.934779 150.16598,56.371625 149.54753,59.142433 L 147.35808,68.939308 C 146.66533,72.056506 146.31898,74.59231 146.31902,76.54673 C 146.31898,77.783713 146.59111,79.564962 147.13542,81.89048 L 140.34441,81.89048 C 139.97328,80.604023 139.71352,78.971212 139.56511,76.992043 L 139.56511,76.992043 z M 142.05144,61.925636 C 141.1113,62.29675 140.10317,62.581255 139.02702,62.779152 C 137.95082,62.977087 136.15102,63.187374 133.62761,63.410011 C 129.71874,63.756384 126.96028,64.195511 125.35222,64.727394 C 123.74413,65.259312 122.53189,66.106642 121.7155,67.269386 C 120.89908,68.43216 120.49088,69.718617 120.49089,71.128761 C 120.49088,73.008979 121.14029,74.555201 122.43913,75.767433 C 123.73795,76.979678 125.58723,77.585797 127.98698,77.585793 C 130.21353,77.585797 132.3535,76.998232 134.40691,75.823097 C 136.46027,74.647974 138.08071,73.008979 139.26823,70.906105 C 140.4557,68.803254 141.38344,65.809767 142.05144,61.925636 L 142.05144,61.925636 z M 154.77995,81.89048 L 166.13542,27.488136 L 172.85222,27.488136 L 161.49675,81.89048 L 154.77995,81.89048 z M 180.6823,50.087746 L 182.278,42.480324 L 189.84831,42.480324 L 188.28972,50.087746 L 180.6823,50.087746 z M 174.03972,81.89048 L 175.63542,74.283058 L 183.24284,74.283058 L 181.61003,81.89048 L 174.03972,81.89048 z M 37.106125,176.66205 L 37.106125,128.67963 L 19.182297,128.67963 L 19.182297,122.25971 L 62.303391,122.25971 L 62.303391,128.67963 L 44.305344,128.67963 L 44.305344,176.66205 L 37.106125,176.66205 z M 68.87175,176.66205 L 68.87175,122.25971 L 75.551437,122.25971 L 75.551437,141.77924 C 78.66861,138.1673 82.6022,136.36131 87.352219,136.36127 C 90.271463,136.36131 92.807268,136.9365 94.959641,138.08685 C 97.111951,139.23728 98.651989,140.8268 99.579758,142.85541 C 100.50746,144.88409 100.97132,147.82809 100.97136,151.68744 L 100.97136,176.66205 L 94.291672,176.66205 L 94.291672,151.68744 C 94.291641,148.34763 93.568009,145.91696 92.120773,144.39545 C 90.673481,142.874 88.626282,142.11326 85.979172,142.11322 C 83.999985,142.11326 82.138333,142.6266 80.394211,143.65326 C 78.650055,144.67999 77.406893,146.07159 76.664719,147.82807 C 75.922519,149.5846 75.551426,152.00908 75.551437,155.1015 L 75.551437,176.66205 L 68.87175,176.66205 z M 138.15495,163.97064 L 145.0573,164.82416 C 143.96872,168.85672 141.95244,171.98627 139.00847,174.21283 C 136.06443,176.43939 132.30402,177.55267 127.72722,177.55267 C 121.96288,177.55267 117.39225,175.77761 114.0153,172.22748 C 110.63835,168.67736 108.94987,163.69852 108.94987,157.29096 C 108.94987,150.66077 110.6569,145.51495 114.07097,141.85346 C 117.48502,138.19204 121.9134,136.36131 127.35612,136.36127 C 132.62563,136.36131 136.93031,138.15493 140.27019,141.74213 C 143.60999,145.3294 145.27991,150.37627 145.27995,156.88275 C 145.27991,157.27861 145.26754,157.87236 145.24284,158.664 L 115.85222,158.664 C 116.0996,162.99344 117.32421,166.30854 119.52605,168.60932 C 121.72785,170.9101 124.47395,172.06049 127.76433,172.06049 C 130.21352,172.06049 132.30402,171.41726 134.03581,170.1308 C 135.76755,168.84435 137.1406,166.79097 138.15495,163.97064 L 138.15495,163.97064 z M 116.22331,153.17182 L 138.22917,153.17182 C 137.93226,149.85674 137.09112,147.37041 135.70573,145.71283 C 133.5781,143.13995 130.81964,141.85349 127.43034,141.85346 C 124.36262,141.85349 121.78352,142.88018 119.69304,144.93353 C 117.60253,146.98695 116.44596,149.73304 116.22331,153.17182 L 116.22331,153.17182 z M 216.64128,170.83588 C 219.98107,173.13666 223.06115,174.81895 225.88152,175.88275 L 223.76628,180.89252 C 219.85738,179.48236 215.9609,177.2558 212.07683,174.21283 C 208.04424,176.46413 203.59112,177.58978 198.71745,177.58978 C 193.79425,177.58978 189.32876,176.40228 185.32097,174.02728 C 181.31314,171.65229 178.22688,168.31245 176.06218,164.00775 C 173.89746,159.70308 172.81511,154.85413 172.81511,149.46088 C 172.81511,144.09242 173.90365,139.20636 176.08073,134.80267 C 178.25781,130.39908 181.35644,127.04687 185.37663,124.74603 C 189.3968,122.44531 193.89321,121.29492 198.86589,121.29486 C 203.88799,121.29492 208.41533,122.4886 212.44792,124.87592 C 216.48043,127.26334 219.55432,130.60318 221.6696,134.89545 C 223.78478,139.1878 224.8424,144.03057 224.84245,149.42377 C 224.8424,153.90166 224.16206,157.92802 222.80144,161.50287 C 221.44071,165.07775 219.38733,168.18875 216.64128,170.83588 L 216.64128,170.83588 z M 200.79558,161.63275 C 204.95179,162.79553 208.37822,164.5273 211.07487,166.82807 C 215.3053,162.9687 217.42053,157.16728 217.42058,149.42377 C 217.42053,145.02015 216.67216,141.17315 215.17546,137.88275 C 213.67867,134.59243 211.48922,132.03807 208.6071,130.21967 C 205.7249,128.40136 202.49021,127.49218 198.903,127.49213 C 193.53449,127.49218 189.08137,129.32909 185.54362,133.00287 C 182.00585,136.67674 180.23697,142.16274 180.23698,149.46088 C 180.23697,156.53642 181.9873,161.96675 185.48796,165.75189 C 188.98859,169.53706 193.46027,171.42963 198.903,171.42963 C 201.47588,171.42963 203.90036,170.94721 206.17644,169.98236 C 203.9251,168.52274 201.5501,167.48367 199.05144,166.86517 L 200.79558,161.63275 z M 259.4655,176.66205 L 259.4655,170.87299 C 256.39776,175.32611 252.22915,177.55267 246.95964,177.55267 C 244.6341,177.55267 242.46321,177.10736 240.44695,176.21674 C 238.43066,175.32611 236.93392,174.20665 235.95671,172.85834 C 234.97949,171.51004 234.29297,169.85867 233.89714,167.90424 C 233.625,166.59305 233.48893,164.51493 233.48894,161.66986 L 233.48894,137.25189 L 240.16862,137.25189 L 240.16862,159.10932 C 240.16861,162.59761 240.30468,164.94787 240.57683,166.1601 C 240.99739,167.91662 241.88801,169.29585 243.2487,170.29779 C 244.60936,171.29975 246.29165,171.80073 248.29558,171.80072 C 250.29946,171.80073 252.17967,171.28738 253.9362,170.26068 C 255.69269,169.234 256.93585,167.83621 257.6657,166.06732 C 258.39548,164.29846 258.76039,161.73173 258.76042,158.36713 L 258.76042,137.25189 L 265.44011,137.25189 L 265.44011,176.66205 L 259.4655,176.66205 z M 275.97917,129.94135 L 275.97917,122.25971 L 282.65886,122.25971 L 282.65886,129.94135 L 275.97917,129.94135 z M 275.97917,176.66205 L 275.97917,137.25189 L 282.65886,137.25189 L 282.65886,176.66205 L 275.97917,176.66205 z M 318.58073,162.2265 L 325.14909,163.08002 C 324.43161,167.60737 322.5947,171.15131 319.63835,173.71185 C 316.68194,176.2724 313.05141,177.55267 308.74675,177.55267 C 303.35351,177.55267 299.0179,175.78998 295.73991,172.26459 C 292.46191,168.73921 290.82292,163.68615 290.82292,157.10541 C 290.82292,152.85022 291.528,149.12692 292.93816,145.93549 C 294.34831,142.74412 296.49446,140.35056 299.37663,138.75482 C 302.25878,137.15916 305.39452,136.36131 308.78386,136.36127 C 313.06378,136.36131 316.56443,137.44366 319.28581,139.60834 C 322.00713,141.77309 323.75127,144.84698 324.51823,148.83002 L 318.02409,149.83197 C 317.40557,147.18487 316.31085,145.19333 314.73991,143.85736 C 313.16893,142.52146 311.27016,141.85349 309.04362,141.85346 C 305.67902,141.85349 302.9453,143.05954 300.84245,145.47162 C 298.73958,147.88376 297.68815,151.69984 297.68816,156.91986 C 297.68815,162.21415 298.70247,166.06115 300.73112,168.46088 C 302.75976,170.86062 305.40689,172.06049 308.67253,172.06049 C 311.2949,172.06049 313.48435,171.25646 315.24089,169.64838 C 316.99737,168.04031 318.11065,165.56636 318.58073,162.2265 L 318.58073,162.2265 z M 330.90105,176.66205 L 330.90105,122.25971 L 337.58073,122.25971 L 337.58073,153.28314 L 353.38933,137.25189 L 362.03581,137.25189 L 346.96941,151.87299 L 363.5573,176.66205 L 355.31902,176.66205 L 342.29362,156.51166 L 337.58073,161.039 L 337.58073,176.66205 L 330.90105,176.66205 z M 390.4987,176.66205 L 390.4987,122.25971 L 410.90886,122.25971 C 415.06508,122.25976 418.39873,122.81022 420.90984,123.91107 C 423.42087,125.01204 425.38766,126.7067 426.81023,128.99506 C 428.23271,131.28351 428.94397,133.67707 428.94402,136.17572 C 428.94397,138.50128 428.31311,140.69073 427.05144,142.74408 C 425.78968,144.7975 423.88473,146.45505 421.33659,147.71674 C 424.62692,148.68161 427.15654,150.32679 428.92546,152.65228 C 430.6943,154.97783 431.57873,157.72392 431.57878,160.89057 C 431.57873,163.43876 431.04065,165.80757 429.96452,167.99701 C 428.88831,170.18647 427.55856,171.87495 425.97527,173.06244 C 424.39189,174.24994 422.40654,175.14675 420.01921,175.75287 C 417.63181,176.35899 414.70636,176.66205 411.24284,176.66205 L 390.4987,176.66205 z M 397.69792,145.11908 L 409.46159,145.11908 C 412.65297,145.11911 414.94138,144.90883 416.32683,144.48822 C 418.15752,143.94398 419.53675,143.04099 420.46452,141.77924 C 421.39222,140.51755 421.85609,138.93422 421.85612,137.02924 C 421.85609,135.22329 421.42315,133.63377 420.5573,132.26068 C 419.69138,130.88768 418.4544,129.94758 416.84636,129.44037 C 415.23826,128.93326 412.4798,128.67968 408.57097,128.67963 L 397.69792,128.67963 L 397.69792,145.11908 z M 397.69792,170.24213 L 411.24284,170.24213 C 413.56834,170.24213 415.20115,170.15555 416.14128,169.98236 C 417.7988,169.68549 419.18422,169.1907 420.29753,168.49799 C 421.41078,167.80529 422.32614,166.79715 423.04362,165.47357 C 423.76103,164.15002 424.11976,162.62235 424.1198,160.89057 C 424.11976,158.86194 423.60023,157.09924 422.5612,155.60248 C 421.5221,154.10576 420.08102,153.05433 418.23796,152.44818 C 416.39483,151.84209 413.74151,151.53903 410.278,151.539 L 397.69792,151.539 L 397.69792,170.24213 z M 440.63347,176.66205 L 440.63347,137.25189 L 446.64519,137.25189 L 446.64519,143.2265 C 448.17903,140.43097 449.59537,138.58787 450.89421,137.69721 C 452.19302,136.80662 453.62173,136.36131 455.18034,136.36127 C 457.43162,136.36131 459.72003,137.07876 462.04558,138.51361 L 459.7448,144.71088 C 458.11196,143.74607 456.47915,143.26365 454.84636,143.26361 C 453.38671,143.26365 452.07551,143.70277 450.91277,144.581 C 449.74999,145.45928 448.92122,146.6777 448.42644,148.23627 C 447.68424,150.61129 447.31314,153.20895 447.31316,156.02924 L 447.31316,176.66205 L 440.63347,176.66205 z M 463.60417,156.95697 C 463.60417,149.65882 465.63281,144.25323 469.69011,140.74017 C 473.07942,137.82094 477.21093,136.36131 482.08464,136.36127 C 487.50258,136.36131 491.93096,138.13637 495.3698,141.68646 C 498.80856,145.23663 500.52796,150.14124 500.528,156.40033 C 500.52796,161.47196 499.76722,165.46121 498.24577,168.3681 C 496.72425,171.27501 494.51006,173.5325 491.6032,175.14057 C 488.69627,176.74864 485.52342,177.55267 482.08464,177.55267 C 476.5677,177.55267 472.10839,175.7838 468.70671,172.24603 C 465.30501,168.70828 463.60417,163.61193 463.60417,156.95697 L 463.60417,156.95697 z M 470.46941,156.95697 C 470.4694,162.00386 471.57031,165.78283 473.77214,168.29389 C 475.97395,170.80496 478.74478,172.06049 482.08464,172.06049 C 485.39972,172.06049 488.15818,170.79877 490.36003,168.27533 C 492.56182,165.7519 493.66273,161.9049 493.66277,156.73432 C 493.66273,151.86064 492.55564,148.16826 490.34148,145.65717 C 488.12726,143.14613 485.37498,141.8906 482.08464,141.89057 C 478.74478,141.8906 475.97395,143.13995 473.77214,145.63861 C 471.57031,148.13734 470.4694,151.91012 470.46941,156.95697 L 470.46941,156.95697 z M 515.66862,176.66205 L 503.60808,137.25189 L 510.51042,137.25189 L 516.78191,159.99994 L 519.1198,168.46088 C 519.21874,168.04031 519.89908,165.33133 521.16081,160.33392 L 527.4323,137.25189 L 534.29753,137.25189 L 540.19792,160.11127 L 542.16472,167.64447 L 544.42839,160.03705 L 551.1823,137.25189 L 557.67644,137.25189 L 545.35612,176.66205 L 538.41667,176.66205 L 532.14519,153.06049 L 530.6237,146.34369 L 522.64519,176.66205 L 515.66862,176.66205 z M 563.31706,176.66205 L 563.31706,137.25189 L 569.32878,137.25189 L 569.32878,142.85541 C 572.2233,138.52602 576.40428,136.36131 581.87175,136.36127 C 584.24672,136.36131 586.42999,136.78807 588.42155,137.64154 C 590.41306,138.4951 591.90362,139.61456 592.89323,140.99994 C 593.88278,142.38539 594.57549,144.03057 594.97136,145.93549 C 595.21872,147.1725 595.34242,149.33721 595.34245,152.42963 L 595.34245,176.66205 L 588.66277,176.66205 L 588.66277,152.68939 C 588.66274,149.96807 588.40297,147.93324 587.88347,146.5849 C 587.36391,145.23663 586.44236,144.16045 585.11882,143.35639 C 583.79523,142.55238 582.24282,142.15037 580.46159,142.15033 C 577.61652,142.15037 575.16112,143.05336 573.09538,144.85932 C 571.02961,146.66534 569.99674,150.09176 569.99675,155.13861 L 569.99675,176.66205 L 563.31706,176.66205 z M 23.635422,271.66205 L 23.635422,217.25971 L 60.336594,217.25971 L 60.336594,223.67963 L 30.834641,223.67963 L 30.834641,240.52728 L 56.365891,240.52728 L 56.365891,246.94721 L 30.834641,246.94721 L 30.834641,271.66205 L 23.635422,271.66205 z M 66.385422,251.95697 C 66.385419,244.65882 68.414063,239.25323 72.471359,235.74017 C 75.86067,232.82094 79.992176,231.36131 84.865891,231.36127 C 90.283833,231.36131 94.712214,233.13637 98.151047,236.68646 C 101.58981,240.23663 103.30921,245.14124 103.30925,251.40033 C 103.30921,256.47196 102.54847,260.46121 101.02702,263.3681 C 99.505503,266.27501 97.291313,268.5325 94.384445,270.14057 C 91.477517,271.74864 88.304668,272.55267 84.865891,272.55267 C 79.348948,272.55267 74.889642,270.7838 71.487961,267.24603 C 68.086264,263.70828 66.385419,258.61193 66.385422,251.95697 L 66.385422,251.95697 z M 73.250656,251.95697 C 73.250647,257.00386 74.351557,260.78283 76.553391,263.29389 C 78.755199,265.80496 81.526029,267.06049 84.865891,267.06049 C 88.18097,267.06049 90.939431,265.79877 93.141281,263.27533 C 95.343073,260.7519 96.443983,256.9049 96.444016,251.73432 C 96.443983,246.86064 95.336888,243.16826 93.122726,240.65717 C 90.908507,238.14613 88.156231,236.8906 84.865891,236.89057 C 81.526029,236.8906 78.755199,238.13995 76.553391,240.63861 C 74.351557,243.13734 73.250647,246.91012 73.250656,251.95697 L 73.250656,251.95697 z M 106.72331,271.66205 L 121.12175,251.17767 L 107.79948,232.25189 L 116.14909,232.25189 L 122.19792,241.49213 C 123.33593,243.24867 124.25129,244.72067 124.94402,245.90814 C 126.03254,244.27536 127.03449,242.82809 127.94987,241.56635 L 134.59245,232.25189 L 142.57097,232.25189 L 128.95183,250.80658 L 143.61003,271.66205 L 135.40886,271.66205 L 127.31902,259.41596 L 125.16667,256.11322 L 114.81316,271.66205 L 106.72331,271.66205 z M 167.43425,256.22455 L 173.92839,255.33392 C 174.10156,259.49019 174.88085,262.33524 176.26628,263.86908 C 177.65169,265.40294 179.569,266.16987 182.01823,266.16986 C 183.82421,266.16987 185.3828,265.75548 186.69402,264.9267 C 188.00519,264.09793 188.90818,262.97228 189.403,261.54975 C 189.89777,260.12723 190.14516,257.85738 190.14519,254.74017 L 190.14519,217.25971 L 197.34441,217.25971 L 197.34441,254.33197 C 197.34437,258.88407 196.79392,262.40945 195.69304,264.90814 C 194.5921,267.40685 192.84796,269.31179 190.46062,270.62299 C 188.07322,271.93419 185.27147,272.58978 182.05534,272.58978 C 177.28059,272.58978 173.62532,271.21674 171.08952,268.47064 C 168.55371,265.72456 167.33529,261.64253 167.43425,256.22455 L 167.43425,256.22455 z M 234.08269,271.66205 L 234.08269,265.87299 C 231.01495,270.32611 226.84634,272.55267 221.57683,272.55267 C 219.25129,272.55267 217.08039,272.10736 215.06413,271.21674 C 213.04785,270.32611 211.5511,269.20665 210.5739,267.85834 C 209.59668,266.51004 208.91016,264.85867 208.51433,262.90424 C 208.24219,261.59305 208.10612,259.51493 208.10612,256.66986 L 208.10612,232.25189 L 214.78581,232.25189 L 214.78581,254.10932 C 214.7858,257.59761 214.92187,259.94787 215.19402,261.1601 C 215.61458,262.91662 216.5052,264.29585 217.86589,265.29779 C 219.22655,266.29975 220.90884,266.80073 222.91277,266.80072 C 224.91665,266.80073 226.79686,266.28738 228.55339,265.26068 C 230.30987,264.234 231.55304,262.83621 232.28288,261.06732 C 233.01267,259.29846 233.37758,256.73173 233.37761,253.36713 L 233.37761,232.25189 L 240.0573,232.25189 L 240.0573,271.66205 L 234.08269,271.66205 z M 250.55925,271.66205 L 250.55925,232.25189 L 256.53386,232.25189 L 256.53386,237.78119 C 257.77083,235.85154 259.41601,234.29913 261.46941,233.12396 C 263.52277,231.94887 265.86066,231.36131 268.48308,231.36127 C 271.40232,231.36131 273.79588,231.96743 275.66374,233.17963 C 277.53155,234.3919 278.84893,236.08656 279.61589,238.26361 C 282.73304,233.66209 286.79033,231.36131 291.78777,231.36127 C 295.69657,231.36131 298.70243,232.44366 300.80534,234.60834 C 302.90815,236.77309 303.95958,240.10674 303.95964,244.60932 L 303.95964,271.66205 L 297.31706,271.66205 L 297.31706,246.83588 C 297.31701,244.16403 297.10054,242.24053 296.66765,241.06537 C 296.23465,239.89027 295.44917,238.94398 294.3112,238.2265 C 293.17313,237.50909 291.8372,237.15037 290.30339,237.15033 C 287.53252,237.15037 285.23174,238.07191 283.40105,239.91498 C 281.57028,241.75811 280.65492,244.7083 280.65495,248.76557 L 280.65495,271.66205 L 273.97527,271.66205 L 273.97527,246.05658 C 273.97524,243.08786 273.43097,240.8613 272.34245,239.37689 C 271.25389,237.89255 269.47264,237.15037 266.9987,237.15033 C 265.11848,237.15037 263.38052,237.64516 261.78484,238.63471 C 260.18912,239.62432 259.03254,241.07159 258.31511,242.9765 C 257.59765,244.88148 257.23893,247.62757 257.23894,251.21478 L 257.23894,271.66205 L 250.55925,271.66205 z M 313.94206,286.76557 L 313.94206,232.25189 L 320.028,232.25189 L 320.028,237.37299 C 321.46288,235.36912 323.08332,233.86619 324.88933,232.8642 C 326.6953,231.86228 328.88475,231.36131 331.45769,231.36127 C 334.82224,231.36131 337.79099,232.22719 340.36394,233.95892 C 342.93682,235.69073 344.87888,238.13376 346.19011,241.28803 C 347.50127,244.44235 348.15687,247.8997 348.15691,251.6601 C 348.15687,255.69266 347.43323,259.3232 345.98601,262.5517 C 344.53871,265.78022 342.43584,268.25418 339.67741,269.97357 C 336.91892,271.69297 334.01821,272.55267 330.97527,272.55267 C 328.74868,272.55267 326.75096,272.08262 324.9821,271.14252 C 323.21321,270.20242 321.75976,269.01492 320.62175,267.58002 L 320.62175,286.76557 L 313.94206,286.76557 z M 319.99089,252.17963 C 319.99088,257.25126 321.01757,260.9993 323.07097,263.42377 C 325.12434,265.84825 327.61066,267.06049 330.52995,267.06049 C 333.49868,267.06049 336.04067,265.80496 338.15593,263.29389 C 340.27113,260.78283 341.32875,256.89253 341.32878,251.62299 C 341.32875,246.60088 340.29587,242.84046 338.23015,240.34174 C 336.16437,237.84307 333.69659,236.59373 330.82683,236.59369 C 327.98176,236.59373 325.46451,237.92348 323.27507,240.58295 C 321.0856,243.24248 319.99088,247.10804 319.99089,252.17963 L 319.99089,252.17963 z M 353.57487,259.89838 L 360.18034,258.85932 C 360.55143,261.50646 361.5843,263.5351 363.27898,264.94525 C 364.97362,266.35541 367.34244,267.06049 370.38542,267.06049 C 373.45311,267.06049 375.72915,266.43582 377.21355,265.18646 C 378.69789,263.93712 379.44008,262.4713 379.44011,260.789 C 379.44008,259.2799 378.78448,258.0924 377.47331,257.2265 C 376.55792,256.63277 374.28188,255.87821 370.64519,254.96283 C 365.74674,253.72587 362.35123,252.65588 360.45866,251.75287 C 358.56608,250.8499 357.13118,249.60055 356.15398,248.00482 C 355.17676,246.40915 354.68815,244.64645 354.68816,242.71674 C 354.68815,240.96026 355.09017,239.33363 355.89421,237.83685 C 356.69824,236.34015 357.79297,235.09698 359.17839,234.10736 C 360.21744,233.34047 361.63378,232.69106 363.42741,232.15912 C 365.22102,231.62726 367.14452,231.36131 369.19792,231.36127 C 372.29035,231.36131 375.00552,231.80662 377.34343,232.69721 C 379.68129,233.58787 381.40688,234.79392 382.52019,236.31537 C 383.63344,237.83689 384.40036,239.87172 384.82097,242.41986 L 378.28972,243.31049 C 377.99282,241.28187 377.13312,239.69854 375.71062,238.56049 C 374.28807,237.4225 372.27798,236.85349 369.68034,236.85346 C 366.61262,236.85349 364.42317,237.36065 363.11198,238.37494 C 361.80078,239.3893 361.14518,240.57679 361.14519,241.93744 C 361.14518,242.80335 361.41731,243.58265 361.96159,244.27533 C 362.50585,244.99281 363.35937,245.58656 364.52214,246.05658 C 365.1901,246.304 367.15689,246.87301 370.42253,247.76361 C 375.14777,249.02535 378.44431,250.05823 380.31218,250.86225 C 382.17999,251.6663 383.64581,252.83525 384.70964,254.36908 C 385.77341,255.90295 386.30531,257.8079 386.30534,260.08392 C 386.30531,262.3105 385.6559,264.40717 384.3571,266.37396 C 383.05824,268.34076 381.18422,269.86225 378.73503,270.93842 C 376.28579,272.01459 373.51496,272.55267 370.42253,272.55267 C 365.30142,272.55267 361.39876,271.48887 358.71452,269.36127 C 356.03027,267.23367 354.31706,264.07938 353.57487,259.89838 L 353.57487,259.89838 z M 413.98894,245.16596 C 413.98893,236.13604 416.41341,229.06671 421.26237,223.95795 C 426.11132,218.84928 432.37043,216.29492 440.03972,216.29486 C 445.06182,216.29492 449.58916,217.49479 453.62175,219.89447 C 457.65425,222.29426 460.72814,225.64029 462.84343,229.93256 C 464.95861,234.22491 466.01623,239.09242 466.01628,244.5351 C 466.01623,250.05205 464.90295,254.98759 462.67644,259.34174 C 460.44982,263.69591 457.29553,266.99246 453.21355,269.23139 C 449.13148,271.47032 444.72784,272.58978 440.00261,272.58978 C 434.88149,272.58978 430.30467,271.35281 426.27214,268.87885 C 422.23958,266.40489 419.18424,263.02794 417.10612,258.74799 C 415.028,254.46806 413.98893,249.94072 413.98894,245.16596 L 413.98894,245.16596 z M 421.41081,245.27728 C 421.4108,251.83329 423.17349,256.99768 426.6989,260.77045 C 430.22427,264.54324 434.64647,266.42963 439.9655,266.42963 C 445.38343,266.42963 449.84274,264.52469 453.34343,260.71478 C 456.84403,256.9049 458.59436,251.49931 458.59441,244.49799 C 458.59436,240.06963 457.84599,236.20408 456.34929,232.90131 C 454.8525,229.59862 452.66305,227.03807 449.78093,225.21967 C 446.89873,223.40136 443.66403,222.49218 440.07683,222.49213 C 434.98045,222.49218 430.59536,224.2425 426.92155,227.7431 C 423.24771,231.2438 421.4108,237.08852 421.41081,245.27728 L 421.41081,245.27728 z M 485.35027,271.66205 L 470.35808,232.25189 L 477.40886,232.25189 L 485.8698,255.85346 C 486.78514,258.40165 487.62629,261.04878 488.39323,263.79486 C 488.98696,261.71675 489.81574,259.21805 490.87956,256.29877 L 499.63737,232.25189 L 506.50261,232.25189 L 491.58464,271.66205 L 485.35027,271.66205 z M 539.38152,258.97064 L 546.28386,259.82416 C 545.19528,263.85672 543.17901,266.98627 540.23503,269.21283 C 537.29099,271.43939 533.53058,272.55267 528.95378,272.55267 C 523.18944,272.55267 518.61881,270.77761 515.24187,267.22748 C 511.86491,263.67736 510.17643,258.69852 510.17644,252.29096 C 510.17643,245.66077 511.88346,240.51495 515.29753,236.85346 C 518.71158,233.19204 523.13996,231.36131 528.58269,231.36127 C 533.85219,231.36131 538.15688,233.15493 541.49675,236.74213 C 544.83656,240.3294 546.50648,245.37627 546.50652,251.88275 C 546.50648,252.27861 546.49411,252.87236 546.46941,253.664 L 517.07878,253.664 C 517.32617,257.99344 518.55078,261.30854 520.75261,263.60932 C 522.95442,265.9101 525.70051,267.06049 528.99089,267.06049 C 531.44009,267.06049 533.53058,266.41726 535.26237,265.1308 C 536.99412,263.84435 538.36716,261.79097 539.38152,258.97064 L 539.38152,258.97064 z M 517.44987,248.17182 L 539.45573,248.17182 C 539.15883,244.85674 538.31768,242.37041 536.9323,240.71283 C 534.80467,238.13995 532.0462,236.85349 528.65691,236.85346 C 525.58918,236.85349 523.01008,237.88018 520.9196,239.93353 C 518.8291,241.98695 517.67252,244.73304 517.44987,248.17182 L 517.44987,248.17182 z M 554.63347,271.66205 L 554.63347,232.25189 L 560.64519,232.25189 L 560.64519,238.2265 C 562.17903,235.43097 563.59537,233.58787 564.89421,232.69721 C 566.19302,231.80662 567.62173,231.36131 569.18034,231.36127 C 571.43162,231.36131 573.72003,232.07876 576.04558,233.51361 L 573.7448,239.71088 C 572.11196,238.74607 570.47915,238.26365 568.84636,238.26361 C 567.38671,238.26365 566.07551,238.70277 564.91277,239.581 C 563.74999,240.45928 562.92122,241.6777 562.42644,243.23627 C 561.68424,245.61129 561.31314,248.20895 561.31316,251.02924 L 561.31316,271.66205 L 554.63347,271.66205 z M 37.106125,366.66205 L 37.106125,318.67963 L 19.182297,318.67963 L 19.182297,312.25971 L 62.303391,312.25971 L 62.303391,318.67963 L 44.305344,318.67963 L 44.305344,366.66205 L 37.106125,366.66205 z M 68.87175,366.66205 L 68.87175,312.25971 L 75.551437,312.25971 L 75.551437,331.77924 C 78.66861,328.1673 82.6022,326.36131 87.352219,326.36127 C 90.271463,326.36131 92.807268,326.9365 94.959641,328.08685 C 97.111951,329.23728 98.651989,330.8268 99.579758,332.85541 C 100.50746,334.88409 100.97132,337.82809 100.97136,341.68744 L 100.97136,366.66205 L 94.291672,366.66205 L 94.291672,341.68744 C 94.291641,338.34763 93.568009,335.91696 92.120773,334.39545 C 90.673481,332.874 88.626282,332.11326 85.979172,332.11322 C 83.999985,332.11326 82.138333,332.6266 80.394211,333.65326 C 78.650055,334.67999 77.406893,336.07159 76.664719,337.82807 C 75.922519,339.5846 75.551426,342.00908 75.551437,345.1015 L 75.551437,366.66205 L 68.87175,366.66205 z M 138.15495,353.97064 L 145.0573,354.82416 C 143.96872,358.85672 141.95244,361.98627 139.00847,364.21283 C 136.06443,366.43939 132.30402,367.55267 127.72722,367.55267 C 121.96288,367.55267 117.39225,365.77761 114.0153,362.22748 C 110.63835,358.67736 108.94987,353.69852 108.94987,347.29096 C 108.94987,340.66077 110.6569,335.51495 114.07097,331.85346 C 117.48502,328.19204 121.9134,326.36131 127.35612,326.36127 C 132.62563,326.36131 136.93031,328.15493 140.27019,331.74213 C 143.60999,335.3294 145.27991,340.37627 145.27995,346.88275 C 145.27991,347.27861 145.26754,347.87236 145.24284,348.664 L 115.85222,348.664 C 116.0996,352.99344 117.32421,356.30854 119.52605,358.60932 C 121.72785,360.9101 124.47395,362.06049 127.76433,362.06049 C 130.21352,362.06049 132.30402,361.41726 134.03581,360.1308 C 135.76755,358.84435 137.1406,356.79097 138.15495,353.97064 L 138.15495,353.97064 z M 116.22331,343.17182 L 138.22917,343.17182 C 137.93226,339.85674 137.09112,337.37041 135.70573,335.71283 C 133.5781,333.13995 130.81964,331.85349 127.43034,331.85346 C 124.36262,331.85349 121.78352,332.88018 119.69304,334.93353 C 117.60253,336.98695 116.44596,339.73304 116.22331,343.17182 L 116.22331,343.17182 z M 175.11589,366.66205 L 175.11589,312.25971 L 182.31511,312.25971 L 182.31511,360.24213 L 209.10808,360.24213 L 209.10808,366.66205 L 175.11589,366.66205 z M 242.58073,361.80072 C 240.10675,363.90359 237.72557,365.38796 235.43718,366.25385 C 233.14875,367.11973 230.69335,367.55267 228.07097,367.55267 C 223.74153,367.55267 220.41406,366.49506 218.08855,364.37982 C 215.76302,362.26459 214.60026,359.5618 214.60027,356.27142 C 214.60026,354.34175 215.03939,352.57906 215.91765,350.98334 C 216.7959,349.38765 217.94629,348.10738 219.36882,347.14252 C 220.79134,346.1777 222.39322,345.44788 224.17448,344.95307 C 225.48567,344.60673 227.46483,344.27275 230.11198,343.95111 C 235.50519,343.30791 239.47589,342.54098 242.02409,341.65033 C 242.0488,340.73499 242.06117,340.15361 242.0612,339.90619 C 242.06117,337.18487 241.43031,335.26755 240.16862,334.15424 C 238.46157,332.64516 235.92576,331.8906 232.5612,331.89057 C 229.41926,331.8906 227.09992,332.44106 225.6032,333.54193 C 224.10644,334.64288 222.99934,336.59112 222.28191,339.38666 L 215.75066,338.49603 C 216.3444,335.70049 217.32161,333.44301 218.6823,331.72357 C 220.04297,330.00421 222.00976,328.68064 224.58269,327.75287 C 227.15559,326.82518 230.13671,326.36131 233.52605,326.36127 C 236.89061,326.36131 239.62433,326.75714 241.72722,327.54877 C 243.83005,328.34047 245.37627,329.33624 246.36589,330.53607 C 247.35544,331.73598 248.04815,333.25128 248.44402,335.08197 C 248.66663,336.22002 248.77796,338.27341 248.778,341.24213 L 248.778,350.14838 C 248.77796,356.35802 248.92022,360.28543 249.20476,361.9306 C 249.48923,363.57579 250.05205,365.15294 250.89323,366.66205 L 243.91667,366.66205 C 243.22393,365.27663 242.77862,363.65619 242.58073,361.80072 L 242.58073,361.80072 z M 242.02409,346.88275 C 239.59959,347.87236 235.96287,348.7135 231.11394,349.40619 C 228.36783,349.80204 226.42577,350.24735 225.28777,350.74213 C 224.14973,351.23694 223.27148,351.96057 222.653,352.91303 C 222.0345,353.86551 221.72526,354.92313 221.72527,356.08588 C 221.72526,357.86714 222.39941,359.35151 223.74773,360.539 C 225.09602,361.72651 227.069,362.32026 229.66667,362.32025 C 232.23957,362.32026 234.52798,361.75743 236.53191,360.63178 C 238.53579,359.50613 240.00779,357.9661 240.94792,356.01166 C 241.66534,354.50256 242.02406,352.276 242.02409,349.33197 L 242.02409,346.88275 z M 255.64323,366.66205 L 255.64323,361.24408 L 280.72917,332.44721 C 277.8841,332.59568 275.37303,332.6699 273.19597,332.66986 L 257.12761,332.66986 L 257.12761,327.25189 L 289.33855,327.25189 L 289.33855,331.66791 L 268.00066,356.67963 L 263.88152,361.24408 C 266.87499,361.02143 269.68293,360.9101 272.30534,360.9101 L 290.52605,360.9101 L 290.52605,366.66205 L 255.64323,366.66205 z M 296.87175,381.83978 L 296.12956,375.5683 C 297.58919,375.96412 298.86328,376.16204 299.95183,376.16205 C 301.43619,376.16204 302.62369,375.91464 303.51433,375.41986 C 304.40494,374.92506 305.13476,374.23235 305.70378,373.34174 C 306.12434,372.67376 306.80468,371.01621 307.7448,368.36908 C 307.86848,367.99799 308.0664,367.45372 308.33855,366.73627 L 293.38347,327.25189 L 300.58269,327.25189 L 308.78386,350.07416 C 309.84764,352.9687 310.80012,356.01167 311.64128,359.20307 C 312.40819,356.13537 313.32355,353.14188 314.38737,350.2226 L 322.8112,327.25189 L 329.49089,327.25189 L 314.4987,367.33002 C 312.89061,371.65944 311.64126,374.64056 310.75066,376.27338 C 309.56314,378.47519 308.20246,380.08945 306.66862,381.11615 C 305.13476,382.14283 303.30403,382.65617 301.17644,382.65619 C 299.88997,382.65617 298.45508,382.38404 296.87175,381.83978 L 296.87175,381.83978 z M 357.10027,366.66205 L 357.10027,312.25971 L 375.8405,312.25971 C 380.07094,312.25976 383.29945,312.51953 385.52605,313.039 C 388.6432,313.7565 391.3027,315.05533 393.50456,316.93549 C 396.37431,319.36001 398.52047,322.45864 399.94304,326.23139 C 401.36551,330.00421 402.07678,334.31508 402.07683,339.164 C 402.07678,343.29554 401.59436,346.95699 400.62956,350.14838 C 399.66467,353.3398 398.42769,355.98075 396.91862,358.07123 C 395.40947,360.16173 393.7581,361.80691 391.96452,363.00678 C 390.17086,364.20665 388.00615,365.11583 385.47038,365.73432 C 382.93454,366.35281 380.02146,366.66205 376.73112,366.66205 L 357.10027,366.66205 z M 364.29948,360.24213 L 375.91472,360.24213 C 379.50193,360.24213 382.31605,359.90815 384.3571,359.24017 C 386.39808,358.57221 388.02471,357.63211 389.23698,356.41986 C 390.94398,354.71284 392.27373,352.41825 393.22624,349.53607 C 394.17867,346.65393 394.65491,343.15947 394.65495,339.05267 C 394.65491,333.3626 393.72099,328.98989 391.8532,325.93451 C 389.98532,322.87922 387.71546,320.83202 385.04362,319.79291 C 383.11391,319.05077 380.00909,318.67968 375.72917,318.67963 L 364.29948,318.67963 L 364.29948,360.24213 z M 408.6823,346.95697 C 408.68229,339.65882 410.71094,334.25323 414.76823,330.74017 C 418.15755,327.82094 422.28905,326.36131 427.16277,326.36127 C 432.58071,326.36131 437.00909,328.13637 440.44792,331.68646 C 443.88669,335.23663 445.60609,340.14124 445.60612,346.40033 C 445.60609,351.47196 444.84534,355.46121 443.3239,358.3681 C 441.80238,361.27501 439.58819,363.5325 436.68132,365.14057 C 433.77439,366.74864 430.60154,367.55267 427.16277,367.55267 C 421.64582,367.55267 417.18652,365.7838 413.78484,362.24603 C 410.38314,358.70828 408.68229,353.61193 408.6823,346.95697 L 408.6823,346.95697 z M 415.54753,346.95697 C 415.54752,352.00386 416.64843,355.78283 418.85027,358.29389 C 421.05207,360.80496 423.8229,362.06049 427.16277,362.06049 C 430.47785,362.06049 433.23631,360.79877 435.43816,358.27533 C 437.63995,355.7519 438.74086,351.9049 438.74089,346.73432 C 438.74086,341.86064 437.63376,338.16826 435.4196,335.65717 C 433.20538,333.14613 430.45311,331.8906 427.16277,331.89057 C 423.8229,331.8906 421.05207,333.13995 418.85027,335.63861 C 416.64843,338.13734 415.54752,341.91012 415.54753,346.95697 L 415.54753,346.95697 z M 452.2487,369.92767 L 458.74284,370.89252 C 459.01497,372.89642 459.76953,374.35605 461.00652,375.27142 C 462.66405,376.50839 464.92772,377.12688 467.79753,377.12689 C 470.88996,377.12688 473.27732,376.50839 474.95964,375.27142 C 476.6419,374.03444 477.77992,372.30267 478.3737,370.07611 C 478.72003,368.71543 478.88083,365.85801 478.85612,361.50385 C 475.93683,364.94265 472.30011,366.66205 467.94597,366.66205 C 462.52799,366.66205 458.33463,364.70762 455.36589,360.79877 C 452.39714,356.88992 450.91276,352.20178 450.91277,346.73432 C 450.91276,342.97392 451.5931,339.5042 452.95378,336.32514 C 454.31445,333.14613 456.28743,330.69073 458.87273,328.95892 C 461.458,327.22719 464.49478,326.36131 467.98308,326.36127 C 472.6341,326.36131 476.46873,328.24152 479.48698,332.00189 L 479.48698,327.25189 L 485.64714,327.25189 L 485.64714,361.3183 C 485.6471,367.45372 485.02243,371.80169 483.77312,374.36225 C 482.52373,376.92278 480.54457,378.94524 477.83562,380.42963 C 475.12661,381.91399 471.79295,382.65617 467.83464,382.65619 C 463.1341,382.65617 459.33658,381.59856 456.44206,379.48334 C 453.54753,377.36809 452.14974,374.18288 452.2487,369.92767 L 452.2487,369.92767 z M 457.778,346.25189 C 457.77799,351.42248 458.80468,355.19526 460.85808,357.57025 C 462.91145,359.94526 465.48436,361.13276 468.57683,361.13275 C 471.64451,361.13276 474.21743,359.95144 476.29558,357.58881 C 478.37367,355.22619 479.41273,351.52144 479.41277,346.47455 C 479.41273,341.65036 478.34275,338.01364 476.2028,335.56439 C 474.06281,333.11521 471.48371,331.8906 468.4655,331.89057 C 465.49673,331.8906 462.9733,333.09665 460.89519,335.50873 C 458.81705,337.92087 457.77799,341.50192 457.778,346.25189 L 457.778,346.25189 z M 497.67058,366.66205 L 497.67058,359.05463 L 505.278,359.05463 L 505.278,366.66205 L 497.67058,366.66205 z "
       id="text7132" />
    <path
       style="font-size:386px;font-style:normal;font-weight:normal;fill:#000000;fill-opacity:1;stroke:none;stroke-width:1px;stroke-linecap:butt;stroke-linejoin:miter;stroke-opacity:1;font-family:Sans"
       d="M 662.89124,280.60593 L 695.87463,285.50632 C 697.25674,295.68402 701.08909,303.09742 707.3717,307.74655 C 715.79025,314.02905 727.28731,317.17033 741.86292,317.17038 C 757.56918,317.17033 769.69449,314.02905 778.23889,307.74655 C 786.78302,301.46396 792.56296,292.6684 795.57874,281.35983 C 797.3377,274.44902 798.15443,259.93633 798.02893,237.82175 C 783.20197,255.28725 764.73128,264.01999 742.61682,264.01999 C 715.09917,264.01999 693.80134,254.09357 678.72327,234.24069 C 663.64512,214.38788 656.10607,190.57703 656.10608,162.80807 C 656.10607,143.70924 659.56147,126.0867 666.47229,109.9404 C 673.38307,93.794411 683.40373,81.323557 696.5343,72.527802 C 709.66477,63.732429 725.08842,59.334647 742.8053,59.334442 C 766.42757,59.334647 785.90346,68.884116 801.23303,87.98288 L 801.23303,63.85788 L 832.52014,63.85788 L 832.52014,236.87936 C 832.51995,268.04082 829.34727,290.12397 823.00208,303.12888 C 816.65652,316.13371 806.60445,326.40567 792.84583,333.94479 C 779.0869,341.48378 762.15544,345.25331 742.05139,345.25339 C 718.17762,345.25331 698.8902,339.88173 684.18909,329.13864 C 669.48789,318.39542 662.38861,302.21787 662.89124,280.60593 L 662.89124,280.60593 z M 690.97424,160.35788 C 690.9742,186.61902 696.18871,205.78079 706.6178,217.84323 C 717.04676,229.90577 730.11446,235.93701 745.82092,235.93698 C 761.40153,235.93701 774.46923,229.93718 785.02405,217.93747 C 795.57858,205.93785 800.85592,187.12163 800.85608,161.48874 C 800.85592,136.98691 795.42152,118.51623 784.55286,106.07663 C 773.68391,93.637347 760.5848,87.417627 745.25549,87.41745 C 730.17728,87.417627 717.36089,93.543109 706.80627,105.79391 C 696.25153,118.04504 690.9742,136.23301 690.97424,160.35788 L 690.97424,160.35788 z "
       id="text8113" />
  </g>
</svg>
